<?xml version="1.0" standalone="no"?>
<!DOCTYPE svg PUBLIC "-//W3C//DTD SVG 20010904//EN"
 "http://www.w3.org/TR/2001/REC-SVG-20010904/DTD/svg10.dtd">
<svg version="1.0" xmlns="http://www.w3.org/2000/svg"
 width="512.000000pt" height="512.000000pt" viewBox="0 0 512.000000 512.000000"
 preserveAspectRatio="xMidYMid meet">
<metadata>
Created by potrace 1.14, written by Peter Selinger 2001-2017
</metadata>
<g transform="translate(0.000000,512.000000) scale(0.100000,-0.100000)"
fill="#000000" stroke="none">
<path d="M2440 5107 c-3 -3 -27 -8 -55 -12 -119 -15 -276 -83 -402 -172 -119
-85 -152 -146 -104 -196 38 -39 71 -31 141 32 239 217 615 264 911 116 70 -36
147 -90 192 -137 40 -41 82 -44 118 -9 25 26 27 32 19 61 -12 42 -37 68 -125
134 -107 79 -253 144 -390 172 -40 8 -299 18 -305 11z"/>
<path d="M2419 4691 c-94 -24 -191 -75 -249 -131 -57 -56 -64 -87 -25 -125 35
-36 69 -32 124 14 91 76 198 113 311 107 114 -6 194 -39 275 -111 63 -55 127
-40 141 33 6 31 2 37 -47 84 -69 65 -164 113 -264 134 -66 13 -201 11 -266 -5z"/>
<path d="M2486 4320 c-46 -15 -104 -60 -114 -90 -13 -35 3 -69 41 -90 26 -14
31 -13 77 13 28 15 59 27 71 27 22 0 60 -17 69 -31 4 -5 19 -11 36 -15 41 -8
84 26 84 67 0 44 -15 65 -66 95 -49 29 -146 41 -198 24z"/>
<path d="M1319 4075 c-2 -2 -35 -6 -74 -9 -38 -4 -86 -8 -105 -11 -49 -6 -127
-15 -179 -20 -59 -6 -143 -48 -177 -88 -36 -42 -73 -125 -78 -173 -3 -22 -5
-42 -5 -45 -1 -3 -23 -20 -50 -36 -65 -41 -110 -107 -218 -326 -78 -158 -83
-185 -44 -218 18 -15 17 -18 -19 -115 -34 -92 -39 -99 -66 -102 -46 -6 -63
-29 -95 -136 -16 -56 -34 -114 -39 -131 -14 -45 -67 -265 -74 -305 -3 -19 -8
-46 -11 -60 -12 -53 -54 -318 -59 -370 -18 -183 -21 -245 -21 -430 0 -235 11
-383 35 -500 6 -25 12 -58 15 -75 8 -53 44 -181 71 -257 73 -202 179 -374 314
-506 115 -112 187 -147 305 -147 67 0 86 4 120 25 42 26 67 51 84 85 5 11 87
218 181 460 94 242 176 448 181 459 6 10 12 26 14 35 7 33 57 144 77 171 11
16 42 40 68 54 l47 26 1035 0 c764 0 1043 -3 1069 -12 41 -13 88 -51 110 -87
8 -14 44 -98 78 -186 60 -155 70 -179 91 -227 18 -43 160 -409 160 -414 0 -2
9 -23 19 -47 10 -23 35 -84 55 -136 20 -52 46 -109 58 -127 68 -99 248 -111
379 -25 60 40 167 147 228 228 132 177 238 458 281 748 7 44 14 87 15 96 26
134 26 638 1 779 -3 14 -8 52 -11 84 -3 33 -8 62 -9 65 -2 3 -7 31 -10 61 -7
61 -15 108 -21 130 -3 8 -7 33 -11 55 -12 81 -104 424 -149 560 -85 256 -226
572 -325 727 -29 47 -101 108 -125 108 -7 0 -15 20 -19 48 -15 116 -84 220
-167 255 -30 12 -123 27 -269 42 -25 2 -70 7 -100 10 -196 22 -245 11 -326
-70 -50 -50 -94 -126 -94 -161 0 -12 -13 -14 -72 -10 -290 21 -1088 28 -1408
12 -345 -17 -310 -18 -321 12 -35 97 -103 178 -177 209 -33 14 -154 28 -163
18z"/>
</g>
</svg>
